<?xml version="1.0" encoding="UTF-8"?><svg xmlns="http://www.w3.org/2000/svg" xmlns:xlink="http://www.w3.org/1999/xlink" fill-opacity="1" color-rendering="auto" color-interpolation="auto" text-rendering="auto" stroke="black" stroke-linecap="square" width="1582" stroke-miterlimit="10" shape-rendering="auto" stroke-opacity="1" fill="black" stroke-dasharray="none" font-weight="normal" stroke-width="1" height="859" font-family="'Dialog'" font-style="normal" stroke-linejoin="miter" font-size="12px" stroke-dashoffset="0" image-rendering="auto">
  <!--Generated by ySVG 2.5-->
  <defs id="genericDefs"/>
  <g>
    <defs id="defs1">
      <clipPath clipPathUnits="userSpaceOnUse" id="clipPath1">
        <path d="M0 0 L1582 0 L1582 859 L0 859 L0 0 Z"/>
      </clipPath>
      <clipPath clipPathUnits="userSpaceOnUse" id="clipPath2">
        <path d="M-157 134 L1425 134 L1425 993 L-157 993 L-157 134 Z"/>
      </clipPath>
    </defs>
    <g fill="white" text-rendering="geometricPrecision" shape-rendering="geometricPrecision" transform="translate(157,-134)" stroke="white">
      <rect x="-157" width="1582" height="859" y="134" clip-path="url(#clipPath2)" stroke="none"/>
    </g>
    <g fill="rgb(204,255,204)" text-rendering="geometricPrecision" shape-rendering="geometricPrecision" transform="matrix(1,0,0,1,157,-134)" stroke="rgb(204,255,204)">
      <rect x="761.5" width="259" height="81" y="285.5" clip-path="url(#clipPath2)" stroke="none"/>
    </g>
    <g text-rendering="geometricPrecision" stroke-miterlimit="1.45" shape-rendering="geometricPrecision" transform="matrix(1,0,0,1,157,-134)" stroke-linecap="butt">
      <rect fill="none" x="761.5" width="259" height="81" y="285.5" clip-path="url(#clipPath2)"/>
      <text x="778.0131" xml:space="preserve" y="308.5221" clip-path="url(#clipPath2)" font-family="sans-serif" stroke="none">Objectif SI</text>
      <text x="778.0131" xml:space="preserve" y="323.2233" clip-path="url(#clipPath2)" font-family="sans-serif" stroke="none"> </text>
      <text x="778.0131" xml:space="preserve" y="337.9244" clip-path="url(#clipPath2)" font-family="sans-serif" stroke="none">Créer une plateforme permettant à</text>
      <text x="778.0131" xml:space="preserve" y="352.6256" clip-path="url(#clipPath2)" font-family="sans-serif" stroke="none">l'étudiant de choisir des cours à optiions.</text>
    </g>
    <g fill="rgb(204,255,204)" text-rendering="geometricPrecision" shape-rendering="geometricPrecision" transform="matrix(1,0,0,1,157,-134)" stroke="rgb(204,255,204)">
      <rect x="379.9978" width="230.5199" height="81" y="494.7421" clip-path="url(#clipPath2)" stroke="none"/>
    </g>
    <g text-rendering="geometricPrecision" stroke-miterlimit="1.45" shape-rendering="geometricPrecision" transform="matrix(1,0,0,1,157,-134)" stroke-linecap="butt">
      <rect fill="none" x="379.9978" width="230.5199" height="81" y="494.7421" clip-path="url(#clipPath2)"/>
      <text x="394.9149" xml:space="preserve" y="517.7642" clip-path="url(#clipPath2)" font-family="sans-serif" stroke="none">Exigence Fonctionnelle 1</text>
      <text x="394.9149" xml:space="preserve" y="532.4653" clip-path="url(#clipPath2)" font-family="sans-serif" stroke="none"> </text>
      <text x="394.9149" xml:space="preserve" y="547.1665" clip-path="url(#clipPath2)" font-family="sans-serif" stroke="none">Le système doit permettre à l'utilisateur</text>
      <text x="394.9149" xml:space="preserve" y="561.8677" clip-path="url(#clipPath2)" font-family="sans-serif" stroke="none">d'entrer des données. </text>
    </g>
    <g fill="rgb(204,255,204)" text-rendering="geometricPrecision" shape-rendering="geometricPrecision" transform="matrix(1,0,0,1,157,-134)" stroke="rgb(204,255,204)">
      <rect x="640.5177" width="230.5199" height="81" y="535.3671" clip-path="url(#clipPath2)" stroke="none"/>
    </g>
    <g text-rendering="geometricPrecision" stroke-miterlimit="1.45" shape-rendering="geometricPrecision" transform="matrix(1,0,0,1,157,-134)" stroke-linecap="butt">
      <rect fill="none" x="640.5177" width="230.5199" height="81" y="535.3671" clip-path="url(#clipPath2)"/>
      <text x="655.4348" xml:space="preserve" y="558.3892" clip-path="url(#clipPath2)" font-family="sans-serif" stroke="none">Exigence Fonctionnelle 2</text>
      <text x="655.4348" xml:space="preserve" y="573.0903" clip-path="url(#clipPath2)" font-family="sans-serif" stroke="none"> </text>
      <text x="655.4348" xml:space="preserve" y="587.7915" clip-path="url(#clipPath2)" font-family="sans-serif" stroke="none">Le système doit permettre à l'utilisateur</text>
      <text x="655.4348" xml:space="preserve" y="602.4927" clip-path="url(#clipPath2)" font-family="sans-serif" stroke="none">de consulter la liste de cours à options.</text>
    </g>
    <g fill="rgb(204,255,204)" text-rendering="geometricPrecision" shape-rendering="geometricPrecision" transform="matrix(1,0,0,1,157,-134)" stroke="rgb(204,255,204)">
      <path d="M891 436.4482 L906 466.4482 L876 466.4482 Z" fill-rule="evenodd" clip-path="url(#clipPath2)" stroke="none"/>
    </g>
    <g text-rendering="geometricPrecision" stroke-miterlimit="1.45" shape-rendering="geometricPrecision" transform="matrix(1,0,0,1,157,-134)" stroke-linecap="butt">
      <path fill="none" d="M891 436.4482 L906 466.4482 L876 466.4482 Z" fill-rule="evenodd" clip-path="url(#clipPath2)"/>
    </g>
    <g fill="rgb(204,255,204)" text-rendering="geometricPrecision" shape-rendering="geometricPrecision" transform="matrix(1,0,0,1,157,-134)" stroke="rgb(204,255,204)">
      <rect x="-141.042" width="230.5199" height="81" y="700.5506" clip-path="url(#clipPath2)" stroke="none"/>
    </g>
    <g text-rendering="geometricPrecision" stroke-miterlimit="1.45" shape-rendering="geometricPrecision" transform="matrix(1,0,0,1,157,-134)" stroke-linecap="butt">
      <rect fill="none" x="-141.042" width="230.5199" height="81" y="700.5506" clip-path="url(#clipPath2)"/>
      <text x="-126.1248" xml:space="preserve" y="723.5728" clip-path="url(#clipPath2)" font-family="sans-serif" stroke="none">Exigence Fonctionnelle 5</text>
      <text x="-126.1248" xml:space="preserve" y="738.2739" clip-path="url(#clipPath2)" font-family="sans-serif" stroke="none"> </text>
      <text x="-126.1248" xml:space="preserve" y="752.9751" clip-path="url(#clipPath2)" font-family="sans-serif" stroke="none">Le système doit permettre à l'utilisateur</text>
      <text x="-126.1248" xml:space="preserve" y="767.6763" clip-path="url(#clipPath2)" font-family="sans-serif" stroke="none">d'entrer sa période d'étude.</text>
    </g>
    <g fill="rgb(204,255,204)" text-rendering="geometricPrecision" shape-rendering="geometricPrecision" transform="matrix(1,0,0,1,157,-134)" stroke="rgb(204,255,204)">
      <path d="M495.2577 646.5839 L510.2577 676.5839 L480.2577 676.5839 Z" fill-rule="evenodd" clip-path="url(#clipPath2)" stroke="none"/>
    </g>
    <g text-rendering="geometricPrecision" stroke-miterlimit="1.45" shape-rendering="geometricPrecision" transform="matrix(1,0,0,1,157,-134)" stroke-linecap="butt">
      <path fill="none" d="M495.2577 646.5839 L510.2577 676.5839 L480.2577 676.5839 Z" fill-rule="evenodd" clip-path="url(#clipPath2)"/>
    </g>
    <g fill="rgb(204,255,204)" text-rendering="geometricPrecision" shape-rendering="geometricPrecision" transform="matrix(1,0,0,1,157,-134)" stroke="rgb(204,255,204)">
      <rect x="119.4779" width="230.5199" height="81" y="745.8631" clip-path="url(#clipPath2)" stroke="none"/>
    </g>
    <g text-rendering="geometricPrecision" stroke-miterlimit="1.45" shape-rendering="geometricPrecision" transform="matrix(1,0,0,1,157,-134)" stroke-linecap="butt">
      <rect fill="none" x="119.4779" width="230.5199" height="81" y="745.8631" clip-path="url(#clipPath2)"/>
      <text x="134.3951" xml:space="preserve" y="768.8853" clip-path="url(#clipPath2)" font-family="sans-serif" stroke="none">Exigence Fonctionnelle 6</text>
      <text x="134.3951" xml:space="preserve" y="783.5864" clip-path="url(#clipPath2)" font-family="sans-serif" stroke="none"> </text>
      <text x="134.3951" xml:space="preserve" y="798.2876" clip-path="url(#clipPath2)" font-family="sans-serif" stroke="none">Le système doit permettre à l'utilisateur</text>
      <text x="134.3951" xml:space="preserve" y="812.9888" clip-path="url(#clipPath2)" font-family="sans-serif" stroke="none">d'entrer son année d'étude.</text>
    </g>
    <g fill="rgb(204,255,204)" text-rendering="geometricPrecision" shape-rendering="geometricPrecision" transform="matrix(1,0,0,1,157,-134)" stroke="rgb(204,255,204)">
      <rect x="379.9978" width="230.5199" height="81" y="745.8631" clip-path="url(#clipPath2)" stroke="none"/>
    </g>
    <g text-rendering="geometricPrecision" stroke-miterlimit="1.45" shape-rendering="geometricPrecision" transform="matrix(1,0,0,1,157,-134)" stroke-linecap="butt">
      <rect fill="none" x="379.9978" width="230.5199" height="81" y="745.8631" clip-path="url(#clipPath2)"/>
      <text x="394.9149" xml:space="preserve" y="768.8853" clip-path="url(#clipPath2)" font-family="sans-serif" stroke="none">Exigence Fonctionnelle 7</text>
      <text x="394.9149" xml:space="preserve" y="783.5864" clip-path="url(#clipPath2)" font-family="sans-serif" stroke="none"> </text>
      <text x="394.9149" xml:space="preserve" y="798.2876" clip-path="url(#clipPath2)" font-family="sans-serif" stroke="none">Le système doit permettre à l'utilisateur</text>
      <text x="394.9149" xml:space="preserve" y="812.9888" clip-path="url(#clipPath2)" font-family="sans-serif" stroke="none">d'entrer ses coordonnées.</text>
    </g>
    <g fill="rgb(204,255,204)" text-rendering="geometricPrecision" shape-rendering="geometricPrecision" transform="matrix(1,0,0,1,157,-134)" stroke="rgb(204,255,204)">
      <rect x="640.5177" width="230.5199" height="81" y="745.8631" clip-path="url(#clipPath2)" stroke="none"/>
    </g>
    <g text-rendering="geometricPrecision" stroke-miterlimit="1.45" shape-rendering="geometricPrecision" transform="matrix(1,0,0,1,157,-134)" stroke-linecap="butt">
      <rect fill="none" x="640.5177" width="230.5199" height="81" y="745.8631" clip-path="url(#clipPath2)"/>
      <text x="655.4348" xml:space="preserve" y="768.8853" clip-path="url(#clipPath2)" font-family="sans-serif" stroke="none">Exigence Fonctionnelle 8</text>
      <text x="655.4348" xml:space="preserve" y="783.5864" clip-path="url(#clipPath2)" font-family="sans-serif" stroke="none"> </text>
      <text x="655.4348" xml:space="preserve" y="798.2876" clip-path="url(#clipPath2)" font-family="sans-serif" stroke="none">Le système doit permettre à l'utilisateur</text>
      <text x="655.4348" xml:space="preserve" y="812.9888" clip-path="url(#clipPath2)" font-family="sans-serif" stroke="none">d'entrer les cours qu'il a déjà suivis.</text>
    </g>
    <g fill="rgb(204,255,204)" text-rendering="geometricPrecision" shape-rendering="geometricPrecision" transform="matrix(1,0,0,1,157,-134)" stroke="rgb(204,255,204)">
      <rect x="379.9978" width="230.5199" height="81" y="896.1424" clip-path="url(#clipPath2)" stroke="none"/>
    </g>
    <g text-rendering="geometricPrecision" stroke-miterlimit="1.45" shape-rendering="geometricPrecision" transform="matrix(1,0,0,1,157,-134)" stroke-linecap="butt">
      <rect fill="none" x="379.9978" width="230.5199" height="81" y="896.1424" clip-path="url(#clipPath2)"/>
      <text x="394.9149" xml:space="preserve" y="919.1645" clip-path="url(#clipPath2)" font-family="sans-serif" stroke="none">Exigence Fonctionnelle 10</text>
      <text x="394.9149" xml:space="preserve" y="933.8657" clip-path="url(#clipPath2)" font-family="sans-serif" stroke="none"> </text>
      <text x="394.9149" xml:space="preserve" y="948.5668" clip-path="url(#clipPath2)" font-family="sans-serif" stroke="none">Le système doit pouvoir stocker les</text>
      <text x="394.9149" xml:space="preserve" y="963.268" clip-path="url(#clipPath2)" font-family="sans-serif" stroke="none">données de l'utilisateur.</text>
    </g>
    <g fill="rgb(204,255,204)" text-rendering="geometricPrecision" shape-rendering="geometricPrecision" transform="matrix(1,0,0,1,157,-134)" stroke="rgb(204,255,204)">
      <rect x="901.0375" width="230.5199" height="81" y="700.5506" clip-path="url(#clipPath2)" stroke="none"/>
    </g>
    <g text-rendering="geometricPrecision" stroke-miterlimit="1.45" shape-rendering="geometricPrecision" transform="matrix(1,0,0,1,157,-134)" stroke-linecap="butt">
      <rect fill="none" x="901.0375" width="230.5199" height="81" y="700.5506" clip-path="url(#clipPath2)"/>
      <text x="915.9547" xml:space="preserve" y="723.5728" clip-path="url(#clipPath2)" font-family="sans-serif" stroke="none">Exigence Fonctionnelle 9</text>
      <text x="915.9547" xml:space="preserve" y="738.2739" clip-path="url(#clipPath2)" font-family="sans-serif" stroke="none"> </text>
      <text x="915.9547" xml:space="preserve" y="752.9751" clip-path="url(#clipPath2)" font-family="sans-serif" stroke="none">Le système doit permettre à l'utilisateur</text>
      <text x="915.9547" xml:space="preserve" y="767.6763" clip-path="url(#clipPath2)" font-family="sans-serif" stroke="none">d'entrer ses centres d'intérêts.</text>
    </g>
    <g fill="rgb(204,255,204)" text-rendering="geometricPrecision" shape-rendering="geometricPrecision" transform="matrix(1,0,0,1,157,-134)" stroke="rgb(204,255,204)">
      <rect x="901.0375" width="230.5199" height="97.8851" y="526.9245" clip-path="url(#clipPath2)" stroke="none"/>
    </g>
    <g text-rendering="geometricPrecision" stroke-miterlimit="1.45" shape-rendering="geometricPrecision" transform="matrix(1,0,0,1,157,-134)" stroke-linecap="butt">
      <rect fill="none" x="901.0375" width="230.5199" height="97.8851" y="526.9245" clip-path="url(#clipPath2)"/>
      <text x="915.9547" xml:space="preserve" y="551.814" clip-path="url(#clipPath2)" font-family="sans-serif" stroke="none">Exigence Fonctionnelle 3</text>
      <text x="915.9547" xml:space="preserve" y="566.5151" clip-path="url(#clipPath2)" font-family="sans-serif" stroke="none"> </text>
      <text x="915.9547" xml:space="preserve" y="581.2163" clip-path="url(#clipPath2)" font-family="sans-serif" stroke="none">Le système doit permettre à l'utilisateur</text>
      <text x="915.9547" xml:space="preserve" y="595.9175" clip-path="url(#clipPath2)" font-family="sans-serif" stroke="none">de sélectionner des cours à options à</text>
      <text x="915.9547" xml:space="preserve" y="610.6187" clip-path="url(#clipPath2)" font-family="sans-serif" stroke="none">partie de la liste.</text>
    </g>
    <g fill="rgb(204,255,204)" text-rendering="geometricPrecision" shape-rendering="geometricPrecision" transform="matrix(1,0,0,1,157,-134)" stroke="rgb(204,255,204)">
      <rect x="1161.5574" width="247.7074" height="81" y="494.7421" clip-path="url(#clipPath2)" stroke="none"/>
    </g>
    <g text-rendering="geometricPrecision" stroke-miterlimit="1.45" shape-rendering="geometricPrecision" transform="matrix(1,0,0,1,157,-134)" stroke-linecap="butt">
      <rect fill="none" x="1161.5574" width="247.7074" height="81" y="494.7421" clip-path="url(#clipPath2)"/>
      <text x="1177.4376" xml:space="preserve" y="517.7642" clip-path="url(#clipPath2)" font-family="sans-serif" stroke="none">Exigence Fonctionnelle 4</text>
      <text x="1177.4376" xml:space="preserve" y="532.4653" clip-path="url(#clipPath2)" font-family="sans-serif" stroke="none"> </text>
      <text x="1177.4376" xml:space="preserve" y="547.1665" clip-path="url(#clipPath2)" font-family="sans-serif" stroke="none">Le système doit pouvoir générer un</text>
      <text x="1177.4376" xml:space="preserve" y="561.8677" clip-path="url(#clipPath2)" font-family="sans-serif" stroke="none">calendrier de cours à partir de la sélection.</text>
    </g>
    <g fill="rgb(204,255,204)" text-rendering="geometricPrecision" shape-rendering="geometricPrecision" transform="matrix(1,0,0,1,157,-134)" stroke="rgb(204,255,204)">
      <rect x="375.7009" width="239.1136" height="81" y="285.5" clip-path="url(#clipPath2)" stroke="none"/>
    </g>
    <g text-rendering="geometricPrecision" stroke-miterlimit="1.45" shape-rendering="geometricPrecision" transform="matrix(1,0,0,1,157,-134)" stroke-linecap="butt">
      <rect fill="none" x="375.7009" width="239.1136" height="81" y="285.5" clip-path="url(#clipPath2)"/>
      <text x="391.0996" xml:space="preserve" y="308.5221" clip-path="url(#clipPath2)" font-family="sans-serif" stroke="none">Exigence Non-Fonctionnelle 1</text>
      <text x="391.0996" xml:space="preserve" y="323.2233" clip-path="url(#clipPath2)" font-family="sans-serif" stroke="none"> </text>
      <text x="391.0996" xml:space="preserve" y="337.9244" clip-path="url(#clipPath2)" font-family="sans-serif" stroke="none">La requête de l'utilisateur ne devrait pas</text>
      <text x="391.0996" xml:space="preserve" y="352.6256" clip-path="url(#clipPath2)" font-family="sans-serif" stroke="none">prendre plus de quelques secondes.</text>
    </g>
    <g fill="rgb(204,255,204)" text-rendering="geometricPrecision" shape-rendering="geometricPrecision" transform="matrix(1,0,0,1,157,-134)" stroke="rgb(204,255,204)">
      <rect x="1129.5268" width="239.1136" height="65.375" y="293.3125" clip-path="url(#clipPath2)" stroke="none"/>
    </g>
    <g text-rendering="geometricPrecision" stroke-miterlimit="1.45" shape-rendering="geometricPrecision" transform="matrix(1,0,0,1,157,-134)" stroke-linecap="butt">
      <rect fill="none" x="1129.5268" width="239.1136" height="65.375" y="293.3125" clip-path="url(#clipPath2)"/>
      <text x="1144.9255" xml:space="preserve" y="314.6067" clip-path="url(#clipPath2)" font-family="sans-serif" stroke="none">Exigence Non-Fonctionnelle 4</text>
      <text x="1144.9255" xml:space="preserve" y="329.3078" clip-path="url(#clipPath2)" font-family="sans-serif" stroke="none"> </text>
      <text x="1144.9255" xml:space="preserve" y="344.009" clip-path="url(#clipPath2)" font-family="sans-serif" stroke="none">Le système doit être facile à utiliser.</text>
    </g>
    <g fill="rgb(204,255,204)" text-rendering="geometricPrecision" shape-rendering="geometricPrecision" transform="matrix(1,0,0,1,157,-134)" stroke="rgb(204,255,204)">
      <rect x="580.7434" width="239.1136" height="81" y="149.5468" clip-path="url(#clipPath2)" stroke="none"/>
    </g>
    <g text-rendering="geometricPrecision" stroke-miterlimit="1.45" shape-rendering="geometricPrecision" transform="matrix(1,0,0,1,157,-134)" stroke-linecap="butt">
      <rect fill="none" x="580.7434" width="239.1136" height="81" y="149.5468" clip-path="url(#clipPath2)"/>
      <text x="596.1422" xml:space="preserve" y="172.5689" clip-path="url(#clipPath2)" font-family="sans-serif" stroke="none">Exigence Non-Fonctionnelle 2</text>
      <text x="596.1422" xml:space="preserve" y="187.2701" clip-path="url(#clipPath2)" font-family="sans-serif" stroke="none"> </text>
      <text x="596.1422" xml:space="preserve" y="201.9712" clip-path="url(#clipPath2)" font-family="sans-serif" stroke="none">Le système doit être disponible que pour</text>
      <text x="596.1422" xml:space="preserve" y="216.6724" clip-path="url(#clipPath2)" font-family="sans-serif" stroke="none">les étudiants de l'Université de Genève.</text>
    </g>
    <g fill="rgb(204,255,204)" text-rendering="geometricPrecision" shape-rendering="geometricPrecision" transform="matrix(1,0,0,1,157,-134)" stroke="rgb(204,255,204)">
      <rect x="943.3182" width="285.9886" height="81" y="149.5468" clip-path="url(#clipPath2)" stroke="none"/>
    </g>
    <g text-rendering="geometricPrecision" stroke-miterlimit="1.45" shape-rendering="geometricPrecision" transform="matrix(1,0,0,1,157,-134)" stroke-linecap="butt">
      <rect fill="none" x="943.3182" width="285.9886" height="81" y="149.5468" clip-path="url(#clipPath2)"/>
      <text x="961.3436" xml:space="preserve" y="172.5689" clip-path="url(#clipPath2)" font-family="sans-serif" stroke="none">Exigence Non-Fonctionnelle 3</text>
      <text x="961.3436" xml:space="preserve" y="187.2701" clip-path="url(#clipPath2)" font-family="sans-serif" stroke="none"> </text>
      <text x="961.3436" xml:space="preserve" y="201.9712" clip-path="url(#clipPath2)" font-family="sans-serif" stroke="none">Le service doit être disponible pendant plusieurs</text>
      <text x="961.3436" xml:space="preserve" y="216.6724" clip-path="url(#clipPath2)" font-family="sans-serif" stroke="none">semaines au début de chaque période.</text>
      <path fill="none" d="M610.5176 510.8371 L874.7851 454.8815" clip-path="url(#clipPath2)"/>
      <path d="M882.6116 453.2243 L869.8361 450.8185 L873.8068 455.0887 L871.9076 460.6016 Z" clip-path="url(#clipPath2)" stroke="none"/>
      <path fill="none" d="M799.7943 535.3671 L871.2405 469.629" clip-path="url(#clipPath2)"/>
      <path d="M877.1276 464.2122 L864.9114 468.6579 L870.5046 470.3061 L871.6824 476.0168 Z" clip-path="url(#clipPath2)" stroke="none"/>
      <path fill="none" d="M891 436.4716 L891 374.5" clip-path="url(#clipPath2)"/>
      <path d="M891 366.5 L886 378.5 L891 375.5 L896 378.5 Z" clip-path="url(#clipPath2)" stroke="none"/>
      <path fill="none" d="M89.4779 723.4717 L479.2504 664.0252" clip-path="url(#clipPath2)"/>
      <path d="M487.159 662.819 L474.5423 659.6855 L478.2618 664.176 L476.05 669.5712 Z" clip-path="url(#clipPath2)" stroke="none"/>
      <path fill="none" d="M495.2577 646.5623 L495.2577 583.7421" clip-path="url(#clipPath2)"/>
      <path d="M495.2577 575.7421 L490.2577 587.7421 L495.2577 584.7421 L500.2577 587.7421 Z" clip-path="url(#clipPath2)" stroke="none"/>
      <path fill="none" d="M319.2956 745.8631 L478.2049 669.7515" clip-path="url(#clipPath2)"/>
      <path d="M485.42 666.2958 L472.4375 666.97 L477.303 670.1835 L476.7572 675.9888 Z" clip-path="url(#clipPath2)" stroke="none"/>
      <path fill="none" d="M495.2577 745.8631 L495.2577 684.6043" clip-path="url(#clipPath2)"/>
      <path d="M495.2577 676.6043 L490.2577 688.6043 L495.2577 685.6043 L500.2577 688.6043 Z" clip-path="url(#clipPath2)" stroke="none"/>
      <path fill="none" d="M671.2198 745.8631 L512.3105 669.7515" clip-path="url(#clipPath2)"/>
      <path d="M505.0954 666.2958 L513.7582 675.9888 L513.2124 670.1835 L518.0779 666.97 Z" clip-path="url(#clipPath2)" stroke="none"/>
      <path fill="none" d="M495.2577 826.8631 L495.2577 888.1424" clip-path="url(#clipPath2)"/>
      <path d="M495.2577 896.1424 L500.2577 884.1424 L495.2577 887.1424 L490.2577 884.1424 Z" clip-path="url(#clipPath2)" stroke="none"/>
      <text x="441.9081" xml:space="preserve" y="866.2166" clip-path="url(#clipPath2)" font-family="sans-serif" stroke="none">supporte</text>
      <path fill="none" d="M901.0375 723.4717 L511.265 664.0252" clip-path="url(#clipPath2)"/>
      <path d="M503.3565 662.819 L514.4655 669.5712 L512.2536 664.176 L515.9731 659.6855 Z" clip-path="url(#clipPath2)" stroke="none"/>
      <path fill="none" d="M967.0093 526.9246 L911.5779 471.8818" clip-path="url(#clipPath2)"/>
      <path d="M905.9012 466.2449 L910.8932 478.2482 L912.2875 472.5864 L917.9394 471.1523 Z" clip-path="url(#clipPath2)" stroke="none"/>
      <path fill="none" d="M1161.5574 508.929 L907.2473 454.9" clip-path="url(#clipPath2)"/>
      <path d="M899.4219 453.2374 L910.1208 460.6221 L908.2255 455.1078 L912.199 450.8404 Z" clip-path="url(#clipPath2)" stroke="none"/>
      <path fill="none" d="M614.8145 326 L753.5 326" clip-path="url(#clipPath2)"/>
      <path d="M761.5 326 L749.5 321 L752.5 326 L749.5 331 Z" clip-path="url(#clipPath2)" stroke="none"/>
      <text x="664.8077" xml:space="preserve" y="360.7139" clip-path="url(#clipPath2)" font-family="sans-serif" stroke="none">supporte</text>
      <path fill="none" d="M1129.5269 326 L1028.5 326" clip-path="url(#clipPath2)"/>
      <path d="M1020.5 326 L1032.5 331 L1029.5 326 L1032.5 321 Z" clip-path="url(#clipPath2)" stroke="none"/>
      <text x="1051.6638" xml:space="preserve" y="360.7139" clip-path="url(#clipPath2)" font-family="sans-serif" stroke="none">supporte</text>
      <path fill="none" d="M757.1091 230.5468 L827.6771 280.856" clip-path="url(#clipPath2)"/>
      <path d="M834.1912 285.5 L827.3226 274.4627 L826.8629 280.2755 L821.5176 282.6053 Z" clip-path="url(#clipPath2)" stroke="none"/>
      <text x="716.3444" xml:space="preserve" y="259.6884" clip-path="url(#clipPath2)" font-family="sans-serif" stroke="none">supporte</text>
      <path fill="none" d="M1028.1295 230.5468 L955.7488 280.9296" clip-path="url(#clipPath2)"/>
      <path d="M949.1829 285.5 L961.8883 282.7481 L956.5696 280.3583 L956.1753 274.5407 Z" clip-path="url(#clipPath2)" stroke="none"/>
      <text x="1021.919" xml:space="preserve" y="259.8829" clip-path="url(#clipPath2)" font-family="sans-serif" stroke="none">supporte</text>
    </g>
  </g>
</svg>
