<?xml version="1.0" encoding="UTF-8"?><svg xmlns="http://www.w3.org/2000/svg" xmlns:xlink="http://www.w3.org/1999/xlink" fill-opacity="1" color-rendering="auto" color-interpolation="auto" text-rendering="auto" stroke="black" stroke-linecap="square" width="615" stroke-miterlimit="10" shape-rendering="auto" stroke-opacity="1" fill="black" stroke-dasharray="none" font-weight="normal" stroke-width="1" height="198" font-family="'Dialog'" font-style="normal" stroke-linejoin="miter" font-size="12px" stroke-dashoffset="0" image-rendering="auto">
  <!--Generated by ySVG 2.5-->
  <defs id="genericDefs"/>
  <g>
    <defs id="defs1">
      <linearGradient x1="448.75" gradientUnits="userSpaceOnUse" x2="581.75" y1="198" y2="238" id="linearGradient1" spreadMethod="reflect">
        <stop stop-opacity="1" stop-color="rgb(232,238,247)" offset="0%"/>
        <stop stop-opacity="1" stop-color="rgb(183,201,227)" offset="100%"/>
      </linearGradient>
      <linearGradient x1="703" gradientUnits="userSpaceOnUse" x2="798" y1="198" y2="238" id="linearGradient2" spreadMethod="reflect">
        <stop stop-opacity="1" stop-color="rgb(232,238,247)" offset="0%"/>
        <stop stop-opacity="1" stop-color="rgb(183,201,227)" offset="100%"/>
      </linearGradient>
      <linearGradient x1="237" gradientUnits="userSpaceOnUse" x2="317" y1="134" y2="174" id="linearGradient3" spreadMethod="reflect">
        <stop stop-opacity="1" stop-color="rgb(232,238,247)" offset="0%"/>
        <stop stop-opacity="1" stop-color="rgb(183,201,227)" offset="100%"/>
      </linearGradient>
      <linearGradient x1="213.5" gradientUnits="userSpaceOnUse" x2="340.5" y1="198" y2="238" id="linearGradient4" spreadMethod="reflect">
        <stop stop-opacity="1" stop-color="rgb(232,238,247)" offset="0%"/>
        <stop stop-opacity="1" stop-color="rgb(183,201,227)" offset="100%"/>
      </linearGradient>
      <linearGradient x1="223" gradientUnits="userSpaceOnUse" x2="331" y1="262" y2="302" id="linearGradient5" spreadMethod="reflect">
        <stop stop-opacity="1" stop-color="rgb(232,238,247)" offset="0%"/>
        <stop stop-opacity="1" stop-color="rgb(183,201,227)" offset="100%"/>
      </linearGradient>
      <clipPath clipPathUnits="userSpaceOnUse" id="clipPath1">
        <path d="M0 0 L615 0 L615 198 L0 198 L0 0 Z"/>
      </clipPath>
      <clipPath clipPathUnits="userSpaceOnUse" id="clipPath2">
        <path d="M198 119 L813 119 L813 317 L198 317 L198 119 Z"/>
      </clipPath>
    </defs>
    <g fill="white" text-rendering="geometricPrecision" shape-rendering="geometricPrecision" transform="translate(-198,-119)" stroke="white">
      <rect x="198" width="615" height="198" y="119" clip-path="url(#clipPath2)" stroke="none"/>
    </g>
    <g fill="url(#linearGradient1)" text-rendering="geometricPrecision" shape-rendering="geometricPrecision" transform="matrix(1,0,0,1,-198,-119)" stroke="url(#linearGradient1)">
      <path d="M448.75 198 L581.75 198 L581.75 238 L448.75 238 Z" stroke="none" clip-path="url(#clipPath2)"/>
    </g>
    <g text-rendering="geometricPrecision" stroke-miterlimit="1.45" shape-rendering="geometricPrecision" transform="matrix(1,0,0,1,-198,-119)" stroke-linecap="butt">
      <path fill="none" d="M448.75 198 L581.75 198 L581.75 238 L448.75 238 Z" clip-path="url(#clipPath2)"/>
      <text x="477.2285" xml:space="preserve" y="215.3633" clip-path="url(#clipPath2)" font-family="sans-serif" stroke="none">algorithme de </text>
      <text x="458.2178" xml:space="preserve" y="230.0645" clip-path="url(#clipPath2)" font-family="sans-serif" stroke="none">propositions de cours</text>
    </g>
    <g fill="url(#linearGradient2)" text-rendering="geometricPrecision" shape-rendering="geometricPrecision" transform="matrix(1,0,0,1,-198,-119)" stroke="url(#linearGradient2)">
      <path d="M713.2 198 L798 198 L787.8 238 L703 238 Z" stroke="none" clip-path="url(#clipPath2)"/>
    </g>
    <g text-rendering="geometricPrecision" stroke-miterlimit="1.45" shape-rendering="geometricPrecision" transform="matrix(1,0,0,1,-198,-119)" stroke-linecap="butt">
      <path fill="none" d="M713.2 198 L798 198 L787.8 238 L703 238 Z" clip-path="url(#clipPath2)"/>
      <text x="715.1504" xml:space="preserve" y="222.7139" clip-path="url(#clipPath2)" font-family="sans-serif" stroke="none">liste de cours</text>
    </g>
    <g fill="url(#linearGradient3)" text-rendering="geometricPrecision" shape-rendering="geometricPrecision" transform="matrix(1,0,0,1,-198,-119)" stroke="url(#linearGradient3)">
      <path d="M247.2 134 L317 134 L306.8 174 L237 174 Z" stroke="none" clip-path="url(#clipPath2)"/>
    </g>
    <g text-rendering="geometricPrecision" stroke-miterlimit="1.45" shape-rendering="geometricPrecision" transform="matrix(1,0,0,1,-198,-119)" stroke-linecap="butt">
      <path fill="none" d="M247.2 134 L317 134 L306.8 174 L237 174 Z" clip-path="url(#clipPath2)"/>
      <text x="256.9844" xml:space="preserve" y="158.7139" clip-path="url(#clipPath2)" font-family="sans-serif" stroke="none">période</text>
    </g>
    <g fill="url(#linearGradient4)" text-rendering="geometricPrecision" shape-rendering="geometricPrecision" transform="matrix(1,0,0,1,-198,-119)" stroke="url(#linearGradient4)">
      <path d="M223.7 198 L340.5 198 L330.3 238 L213.5 238 Z" stroke="none" clip-path="url(#clipPath2)"/>
    </g>
    <g text-rendering="geometricPrecision" stroke-miterlimit="1.45" shape-rendering="geometricPrecision" transform="matrix(1,0,0,1,-198,-119)" stroke-linecap="butt">
      <path fill="none" d="M223.7 198 L340.5 198 L330.3 238 L213.5 238 Z" clip-path="url(#clipPath2)"/>
      <text x="224.9805" xml:space="preserve" y="222.7139" clip-path="url(#clipPath2)" font-family="sans-serif" stroke="none">liste de cours suivis</text>
    </g>
    <g fill="url(#linearGradient5)" text-rendering="geometricPrecision" shape-rendering="geometricPrecision" transform="matrix(1,0,0,1,-198,-119)" stroke="url(#linearGradient5)">
      <path d="M233.2 262 L331 262 L320.8 302 L223 302 Z" stroke="none" clip-path="url(#clipPath2)"/>
    </g>
    <g text-rendering="geometricPrecision" stroke-miterlimit="1.45" shape-rendering="geometricPrecision" transform="matrix(1,0,0,1,-198,-119)" stroke-linecap="butt">
      <path fill="none" d="M233.2 262 L331 262 L320.8 302 L223 302 Z" clip-path="url(#clipPath2)"/>
      <text x="234.499" xml:space="preserve" y="286.7139" clip-path="url(#clipPath2)" font-family="sans-serif" stroke="none">centre d'intérêts</text>
    </g>
    <g text-rendering="geometricPrecision" stroke-miterlimit="1.45" shape-rendering="geometricPrecision" transform="matrix(1,0,0,1,-198,-119)" stroke-linecap="butt">
      <circle fill="none" r="14.5" clip-path="url(#clipPath2)" cx="434.25" cy="218"/>
    </g>
    <g text-rendering="geometricPrecision" stroke-miterlimit="1.45" shape-rendering="geometricPrecision" transform="matrix(1,0,0,1,-198,-119)" stroke-linecap="butt">
      <path fill="none" d="M581.73 218 L700.1014 218" clip-path="url(#clipPath2)"/>
    </g>
    <g text-rendering="geometricPrecision" stroke-miterlimit="1.45" shape-rendering="geometricPrecision" transform="matrix(1,0,0,1,-198,-119)" stroke-linecap="butt">
      <path d="M708.1014 218 L696.1014 213 L699.1014 218 L696.1014 223 Z" stroke="none" clip-path="url(#clipPath2)"/>
      <path fill="none" d="M308.5959 166.8594 L413.4342 209.5281" clip-path="url(#clipPath2)"/>
      <path d="M420.844 212.5438 L411.6142 203.3891 L412.508 209.1511 L407.8445 212.6513 Z" clip-path="url(#clipPath2)" stroke="none"/>
      <path fill="none" d="M335.3929 218 L411.7207 218" clip-path="url(#clipPath2)"/>
      <path d="M419.7207 218 L407.7207 213 L410.7207 218 L407.7207 223 Z" clip-path="url(#clipPath2)" stroke="none"/>
      <path fill="none" d="M326.179 261.9844 L413.4105 226.4816" clip-path="url(#clipPath2)"/>
      <path d="M420.8203 223.4658 L407.8207 223.3583 L412.4843 226.8586 L411.5904 232.6206 Z" clip-path="url(#clipPath2)" stroke="none"/>
    </g>
  </g>
</svg>
